<svg width="1440" height="520" viewBox="0 0 1440 520" fill="none" xmlns="http://www.w3.org/2000/svg">
  <rect width="1440" height="520" rx="28" fill="#111317"/>
  <text x="64" y="76" font-family="-apple-system, BlinkMacSystemFont, Segoe UI, sans-serif" font-size="30" font-weight="800" fill="#F7F8FA">用量趋势与本地健康</text>
  <text x="64" y="110" font-family="-apple-system, BlinkMacSystemFont, Segoe UI, sans-serif" font-size="15" font-weight="600" fill="#8792A0">README preview data · release-ready visual language</text>
  <rect x="64" y="150" width="1312" height="292" rx="22" fill="#1B1E24" stroke="#2E3440"/>
  <line x1="120" y1="376" x2="1320" y2="376" stroke="#343B48"/>
  <line x1="120" y1="308" x2="1320" y2="308" stroke="#29303A"/>
  <line x1="120" y1="240" x2="1320" y2="240" stroke="#29303A"/>
  <line x1="120" y1="172" x2="1320" y2="172" stroke="#29303A"/>
  <path d="M122 342 C182 328 216 346 266 314 C314 284 356 318 408 286 C468 248 522 278 576 240 C646 190 690 230 740 214 C806 192 844 254 904 224 C968 192 1008 150 1068 184 C1134 222 1166 134 1228 174 C1268 200 1292 176 1320 154" stroke="#86ADEE" stroke-width="5" fill="none"/>
  <path d="M122 342 C182 328 216 346 266 314 C314 284 356 318 408 286 C468 248 522 278 576 240 C646 190 690 230 740 214 C806 192 844 254 904 224 C968 192 1008 150 1068 184 C1134 222 1166 134 1228 174 C1268 200 1292 176 1320 154 L1320 376 L122 376 Z" fill="#86ADEE" opacity="0.12"/>
  <rect x="128" y="392" width="18" height="24" rx="6" fill="#6D91CA"/>
  <rect x="180" y="386" width="18" height="30" rx="6" fill="#6D91CA"/>
  <rect x="232" y="398" width="18" height="18" rx="6" fill="#6D91CA"/>
  <rect x="284" y="360" width="18" height="56" rx="6" fill="#6D91CA"/>
  <rect x="336" y="372" width="18" height="44" rx="6" fill="#6D91CA"/>
  <rect x="388" y="348" width="18" height="68" rx="6" fill="#6D91CA"/>
  <rect x="440" y="330" width="18" height="86" rx="6" fill="#6D91CA"/>
  <rect x="492" y="342" width="18" height="74" rx="6" fill="#6D91CA"/>
  <rect x="544" y="306" width="18" height="110" rx="6" fill="#6D91CA"/>
  <rect x="596" y="278" width="18" height="138" rx="6" fill="#6D91CA"/>
  <rect x="648" y="300" width="18" height="116" rx="6" fill="#6D91CA"/>
  <rect x="700" y="250" width="18" height="166" rx="6" fill="#6D91CA"/>
  <rect x="752" y="284" width="18" height="132" rx="6" fill="#6D91CA"/>
  <rect x="804" y="320" width="18" height="96" rx="6" fill="#6D91CA"/>
  <rect x="856" y="298" width="18" height="118" rx="6" fill="#6D91CA"/>
  <rect x="908" y="266" width="18" height="150" rx="6" fill="#6D91CA"/>
  <rect x="960" y="246" width="18" height="170" rx="6" fill="#6D91CA"/>
  <rect x="1012" y="232" width="18" height="184" rx="6" fill="#6D91CA"/>
  <rect x="1064" y="258" width="18" height="158" rx="6" fill="#6D91CA"/>
  <rect x="1116" y="218" width="18" height="198" rx="6" fill="#D89845"/>
  <rect x="1168" y="190" width="18" height="226" rx="6" fill="#D89845"/>
  <rect x="1220" y="202" width="18" height="214" rx="6" fill="#D89845"/>
  <rect x="1272" y="172" width="18" height="244" rx="6" fill="#D89845"/>
  <text x="110" y="466" font-family="-apple-system, BlinkMacSystemFont, Segoe UI, sans-serif" font-size="13" font-weight="700" fill="#8792A0">30 days</text>
  <text x="1210" y="466" font-family="-apple-system, BlinkMacSystemFont, Segoe UI, sans-serif" font-size="13" font-weight="700" fill="#8792A0">today</text>
  <rect x="1032" y="62" width="132" height="34" rx="17" fill="#242936"/>
  <circle cx="1054" cy="79" r="6" fill="#86ADEE"/>
  <text x="1070" y="84" font-family="-apple-system, BlinkMacSystemFont, Segoe UI, sans-serif" font-size="13" font-weight="800" fill="#DCE7FA">Token</text>
  <rect x="1180" y="62" width="156" height="34" rx="17" fill="#242936"/>
  <circle cx="1202" cy="79" r="6" fill="#D89845"/>
  <text x="1218" y="84" font-family="-apple-system, BlinkMacSystemFont, Segoe UI, sans-serif" font-size="13" font-weight="800" fill="#F7E4C8">Cost spike</text>
</svg>
