<svg width="1440" height="860" viewBox="0 0 1440 860" fill="none" xmlns="http://www.w3.org/2000/svg">
  <defs>
    <linearGradient id="surface" x1="0" y1="0" x2="1440" y2="860" gradientUnits="userSpaceOnUse">
      <stop stop-color="#F9FAFB"/>
      <stop offset="1" stop-color="#EAF0F6"/>
    </linearGradient>
    <linearGradient id="card" x1="388" y1="168" x2="1112" y2="692" gradientUnits="userSpaceOnUse">
      <stop stop-color="#FFFFFF" stop-opacity="0.95"/>
      <stop offset="1" stop-color="#F0F4F8" stop-opacity="0.88"/>
    </linearGradient>
    <filter id="soft" x="284" y="74" width="872" height="732" filterUnits="userSpaceOnUse" color-interpolation-filters="sRGB">
      <feDropShadow dx="0" dy="22" stdDeviation="40" flood-color="#3E5369" flood-opacity="0.20"/>
    </filter>
  </defs>
  <rect width="1440" height="860" fill="url(#surface)"/>
  <g filter="url(#soft)">
    <rect x="320" y="110" width="800" height="620" rx="28" fill="url(#card)" stroke="#DCE4EC"/>
  </g>
  <rect x="342" y="132" width="756" height="58" rx="18" fill="#F7F9FB" stroke="#E1E7EE"/>
  <rect x="366" y="146" width="34" height="34" rx="10" fill="#E7F0FC"/>
  <path d="M383 155v16M375 163h16" stroke="#4E8FE8" stroke-width="2.4" stroke-linecap="round"/>
  <text x="416" y="166" font-family="-apple-system, BlinkMacSystemFont, Segoe UI, sans-serif" font-size="22" font-weight="800" fill="#272D35">更新</text>
  <text x="416" y="184" font-family="-apple-system, BlinkMacSystemFont, Segoe UI, sans-serif" font-size="12" font-weight="700" fill="#87919D">检查、下载、替换运行时</text>
  <rect x="370" y="224" width="700" height="158" rx="20" fill="#FFFFFF" stroke="#E2E8EF"/>
  <circle cx="414" cy="270" r="23" fill="#E8F1FC"/>
  <path d="M402 270a12 12 0 0 1 20-9M426 270a12 12 0 0 1-20 9" stroke="#4F8FE7" stroke-width="2.6" fill="none" stroke-linecap="round"/>
  <path d="M421 258h8v8M407 282h-8v-8" stroke="#4F8FE7" stroke-width="2.6" fill="none" stroke-linecap="round"/>
  <text x="456" y="262" font-family="-apple-system, BlinkMacSystemFont, Segoe UI, sans-serif" font-size="24" font-weight="800" fill="#222831">发现更新</text>
  <text x="456" y="292" font-family="-apple-system, BlinkMacSystemFont, Segoe UI, sans-serif" font-size="14" font-weight="600" fill="#7D8793">下载包会先做 SHA-256 校验，再退出 App 完成替换。</text>
  <rect x="456" y="320" width="134" height="32" rx="16" fill="#EEF4FE" stroke="#C9DCF7"/>
  <text x="478" y="341" font-family="-apple-system, BlinkMacSystemFont, Segoe UI, sans-serif" font-size="13" font-weight="800" fill="#4F8FE7">增量优先</text>
  <rect x="606" y="320" width="140" height="32" rx="16" fill="#F4F6F8" stroke="#DCE4EC"/>
  <text x="628" y="341" font-family="-apple-system, BlinkMacSystemFont, Segoe UI, sans-serif" font-size="13" font-weight="800" fill="#697483">23.3 MB</text>
  <rect x="762" y="320" width="220" height="32" rx="16" fill="#F4F6F8" stroke="#DCE4EC"/>
  <text x="782" y="341" font-family="-apple-system, BlinkMacSystemFont, Segoe UI, sans-serif" font-size="13" font-weight="800" fill="#697483">GitHub Release latest</text>
  <rect x="370" y="410" width="700" height="148" rx="18" fill="#FFFFFF" stroke="#E2E8EF"/>
  <text x="398" y="446" font-family="-apple-system, BlinkMacSystemFont, Segoe UI, sans-serif" font-size="15" font-weight="800" fill="#2B3037">清单地址</text>
  <rect x="398" y="462" width="644" height="38" rx="10" fill="#F8FAFC" stroke="#DFE7EF"/>
  <text x="418" y="486" font-family="SFMono-Regular, ui-monospace, Menlo, monospace" font-size="13" fill="#627083">https://github.com/owner/repo/releases/latest/download/latest-stable-macos-arm64.json</text>
  <rect x="398" y="516" width="192" height="22" rx="11" fill="#F4F6F8"/>
  <circle cx="414" cy="527" r="6" fill="#34C759"/>
  <text x="428" y="532" font-family="-apple-system, BlinkMacSystemFont, Segoe UI, sans-serif" font-size="12" font-weight="700" fill="#65707D">自动检查已启用</text>
  <rect x="370" y="586" width="700" height="84" rx="18" fill="#FFFFFF" stroke="#E2E8EF"/>
  <rect x="398" y="610" width="184" height="36" rx="10" fill="#F5F8FB" stroke="#DDE6EE"/>
  <text x="466" y="633" text-anchor="middle" font-family="-apple-system, BlinkMacSystemFont, Segoe UI, sans-serif" font-size="14" font-weight="800" fill="#596575">检查</text>
  <rect x="604" y="610" width="184" height="36" rx="10" fill="#F5F8FB" stroke="#DDE6EE"/>
  <text x="696" y="633" text-anchor="middle" font-family="-apple-system, BlinkMacSystemFont, Segoe UI, sans-serif" font-size="14" font-weight="800" fill="#596575">下载</text>
  <rect x="810" y="610" width="232" height="36" rx="10" fill="#4F8FE7"/>
  <text x="926" y="633" text-anchor="middle" font-family="-apple-system, BlinkMacSystemFont, Segoe UI, sans-serif" font-size="14" font-weight="800" fill="#FFFFFF">安装并重启</text>
</svg>
